<?xml version="1.0" standalone="no"?>
<!DOCTYPE svg PUBLIC "-//W3C//DTD SVG 20010904//EN"
 "http://www.w3.org/TR/2001/REC-SVG-20010904/DTD/svg10.dtd">
<svg version="1.0" xmlns="http://www.w3.org/2000/svg"
 width="140.000000pt" height="140.000000pt" viewBox="0 0 140.000000 140.000000"
 preserveAspectRatio="xMidYMid meet">
<metadata>
Created by potrace 1.11, written by Peter Selinger 2001-2013
</metadata>
<g transform="translate(0.000000,140.000000) scale(0.100000,-0.100000)"
fill="#000000" stroke="none">
<path d="M580 1391 c-137 -26 -251 -84 -353 -180 -118 -112 -179 -219 -211
-373 -72 -346 132 -694 471 -804 78 -25 103 -29 213 -29 111 0 135 3 214 29
214 70 391 250 458 466 18 61 23 98 23 200 0 111 -3 135 -29 214 -36 111 -102
211 -193 297 -129 121 -264 178 -443 184 -58 2 -125 0 -150 -4z m-181 -466
c15 -7 60 -16 100 -19 88 -7 125 -25 154 -74 l22 -37 5 45 c3 31 10 45 20 45
10 0 17 -14 20 -45 l5 -45 22 37 c29 49 66 67 154 74 82 6 116 20 153 64 l26
32 0 -27 c0 -64 -47 -115 -105 -115 -32 0 -31 -7 1 -41 42 -44 13 -64 -48 -33
-29 15 -31 15 -23 -2 30 -72 7 -105 -37 -53 l-29 34 7 -44 c8 -54 -8 -52 -51
7 -36 49 -60 55 -50 13 3 -17 2 -39 -4 -49 -8 -16 -4 -33 25 -87 19 -37 32
-70 29 -73 -3 -3 -19 8 -36 24 l-30 29 21 -49 c24 -57 20 -69 -15 -36 -31 29
-33 11 -5 -45 25 -48 25 -52 1 -60 -12 -4 -17 -13 -14 -28 2 -12 -1 -29 -7
-37 -9 -13 -11 -13 -20 0 -6 8 -9 25 -7 37 3 15 -2 24 -14 28 -24 8 -24 12 1
60 29 57 26 76 -7 41 -34 -38 -40 -20 -13 41 l21 48 -26 -27 c-14 -16 -30 -28
-35 -28 -13 0 9 58 38 102 20 31 22 41 12 53 -8 9 -10 28 -6 50 9 45 -12 48
-37 5 -42 -71 -72 -79 -62 -17 l6 42 -29 -34 c-45 -53 -67 -19 -36 54 8 19 7
20 -19 2 -56 -36 -96 -13 -53 32 32 34 33 41 1 41 -58 0 -105 51 -105 115 l0
27 26 -32 c15 -17 39 -37 53 -45z"/>
</g>
</svg>
